<?xml version="1.0" encoding="utf-8"?>
<!-- Generator: Adobe Illustrator 21.0.0, SVG Export Plug-In . SVG Version: 6.00 Build 0)  -->
<svg version="1.1" id="Capa_1" xmlns="http://www.w3.org/2000/svg" xmlns:xlink="http://www.w3.org/1999/xlink" x="0px" y="0px"
	 width="512px" height="512px" viewBox="0 0 512 512" style="enable-background:new 0 0 512 512;" xml:space="preserve">
<style type="text/css">
	.st0{fill:#1F3C88;}
	.st1{fill:#6B6B6B;}
</style>
<g>
	<g>
		<g>
			<path class="st0" d="M479.4,489.9c-14.7-7.9-22.1-19.5-22.1-34.4V119.5c0-4.1-3.4-7.5-7.5-7.5c-4.1,0-7.5,3.4-7.5,7.5v336.1
				c0,16.9,7,31.1,20.5,41.5H157.5c-23.4,0-42.5-19.1-42.5-42.5c0,0,0-410.2,0-410.2c0-10.8-3.9-21.2-11.1-29.3h295.9
				c23.4,0,42.5,19.1,42.5,42.5v27.5c0,4.1,3.4,7.5,7.5,7.5c4.1,0,7.5-3.4,7.5-7.5V57.5c0-31.7-25.8-57.5-57.5-57.5H70.7
				C46.3,0,26.4,19.9,26.4,44.3v27.4c0,9.3,7.6,16.9,16.9,16.9H100v365.9c0,31.7,25.8,57.5,57.5,57.5h316.4c5.5,0,10-3.5,11.4-8.8
				C486.6,497.9,484.2,492.5,479.4,489.9L479.4,489.9z M100,73.6H43.3c-1,0-1.9-0.8-1.9-1.9V44.3C41.4,28.2,54.5,15,70.7,15
				S100,28.2,100,44.3V73.6z"/>
			<path class="st1" d="M345.6,74.4c4.1,0,7.5-3.4,7.5-7.5s-3.4-7.5-7.5-7.5H211.7c-4.1,0-7.5,3.4-7.5,7.5c0,4.1,3.4,7.5,7.5,7.5
				H345.6z"/>
			<path class="st1" d="M395.9,127.3H161.4c-4.1,0-7.5,3.4-7.5,7.5c0,4.1,3.4,7.5,7.5,7.5h234.5c4.1,0,7.5-3.4,7.5-7.5
				C403.4,130.7,400.1,127.3,395.9,127.3z"/>
			<path class="st1" d="M395.9,164.6H161.4c-4.1,0-7.5,3.4-7.5,7.5c0,4.1,3.4,7.5,7.5,7.5h234.5c4.1,0,7.5-3.4,7.5-7.5
				C403.4,168,400.1,164.6,395.9,164.6z"/>
			<path class="st1" d="M403.4,209.5c0-4.1-3.4-7.5-7.5-7.5H161.4c-4.1,0-7.5,3.4-7.5,7.5c0,4.1,3.4,7.5,7.5,7.5h234.5
				C400.1,217,403.4,213.6,403.4,209.5z"/>
			<path class="st1" d="M303.9,246.8c0-4.1-3.4-7.5-7.5-7.5h-135c-4.1,0-7.5,3.4-7.5,7.5c0,4.1,3.4,7.5,7.5,7.5h135
				C300.5,254.3,303.9,250.9,303.9,246.8z"/>
			<path class="st0" d="M248.5,451.2c3,1.8,6.7,1.8,9.7,0.2l20.6-11.3l20.5,11.3c1.5,0.8,3.1,1.2,4.7,1.2c1.7,0,3.5-0.5,5-1.4
				c3-1.8,4.8-5,4.8-8.4l0.1-54.6c13.1-10.4,21.4-26.5,21.4-44.4c0-31.4-25.5-56.9-56.9-56.9s-56.9,25.5-56.9,56.9
				c0,4.1,3.4,7.5,7.5,7.5c4.1,0,7.5-3.4,7.5-7.5c0-23.1,18.8-41.9,41.9-41.9s41.9,18.8,41.9,41.9s-18.8,41.9-41.9,41.9
				c-12.4,0-24-5.4-32-14.9c-2.7-3.2-7.4-3.6-10.6-0.9c-3.2,2.7-3.6,7.4-0.9,10.6c2.6,3.1,5.5,5.8,8.6,8.3l-0.1,54
				C243.7,446.1,245.5,449.4,248.5,451.2L248.5,451.2z M258.8,397c6.3,2.3,13,3.6,19.8,3.6c7.2,0,14.1-1.4,20.4-3.8L299,434
				l-15.4-8.5c-1.5-0.8-3.1-1.2-4.8-1.2c-1.6,0-3.2,0.4-4.7,1.2l-15.4,8.4L258.8,397z"/>
		</g>
	</g>
</g>
</svg>
