<?xml version="1.0" encoding="utf-8"?>
<!-- Generator: Adobe Illustrator 21.0.0, SVG Export Plug-In . SVG Version: 6.00 Build 0)  -->
<svg version="1.1" id="Capa_1" xmlns="http://www.w3.org/2000/svg" xmlns:xlink="http://www.w3.org/1999/xlink" x="0px" y="0px"
	 width="512px" height="512px" viewBox="0 0 512 512" style="enable-background:new 0 0 512 512;" xml:space="preserve">
<style type="text/css">
	.st0{fill:#6B6B6B;}
	.st1{fill:#1F3C88;}
</style>
<g>
	<path class="st0" d="M233.9,379.8h44.1c6.4,0,11.6-5.2,11.6-11.6v-29.4h29.4c6.4,0,11.6-5.2,11.6-11.6v-44.1
		c0-6.4-5.2-11.6-11.6-11.6h-29.4v-29.4c0-6.4-5.2-11.6-11.6-11.6h-44.1c-6.4,0-11.6,5.2-11.6,11.6v29.4h-29.4
		c-6.4,0-11.6,5.2-11.6,11.6v44.1c0,6.4,5.2,11.6,11.6,11.6h29.4v29.4C222.3,374.6,227.5,379.8,233.9,379.8z M196.3,323.8v-37.3
		h29.4c6.4,0,11.6-5.2,11.6-11.6v-29.4h37.3v29.4c0,6.4,5.2,11.6,11.6,11.6h29.4v37.3h-29.4c-6.4,0-11.6,5.2-11.6,11.6v29.4h-37.3
		v-29.4c0-6.4-5.2-11.6-11.6-11.6H196.3z"/>
	<path class="st0" d="M256,199c-58.5,0-106.2,47.6-106.2,106.2S197.5,411.3,256,411.3c38.4,0,73.9-20.8,92.7-54.4
		c2-3.6,0.7-8.2-2.9-10.2c-3.6-2-8.2-0.7-10.2,2.9c-16.1,28.8-46.6,46.7-79.6,46.7c-50.3,0-91.2-40.9-91.2-91.2S205.7,214,256,214
		c55.3,0,98.5,49.4,90.1,104.9c-0.6,4.1,2.2,7.9,6.3,8.5c4.1,0.6,7.9-2.2,8.5-6.3C370.7,256.4,320.4,199,256,199L256,199z"/>
	<path class="st1" d="M475.5,138.9h-25.4c-1.1-11.2-4.5-22.2-10.2-32l-11.2-19.4c-14.8-25.7-42.4-41.6-72-41.6h-8.8
		c-2-3.2-5.6-5.3-9.7-5.3h-43c-4.1,0-7.5,3.4-7.5,7.5s3.4,7.5,7.5,7.5h39.4v37.8H177.3V55.6h82.9c4.1,0,7.5-3.4,7.5-7.5
		s-3.4-7.5-7.5-7.5h-86.4c-4.1,0-7.6,2.1-9.7,5.3h-8.8c-29.6,0-57.2,15.9-72,41.6l-11.2,19.4c-5.7,9.8-9.1,20.7-10.2,32H36.5
		C16.4,138.9,0,155.2,0,175.4v259.5c0,20.1,16.4,36.5,36.5,36.5h439c20.1,0,36.5-16.4,36.5-36.5V175.4
		C512,155.2,495.6,138.9,475.5,138.9L475.5,138.9z M338.2,108.4c4.1,0,7.6-2.1,9.7-5.3h7.4c8.3,0,16,4.4,20.1,11.6l12.7,22
		c0.4,0.7,0.7,1.4,1,2.1H123c0.3-0.7,0.6-1.4,1-2.1l12.7-22c4.1-7.2,11.8-11.6,20.1-11.6h7.4c2,3.2,5.6,5.3,9.7,5.3L338.2,108.4
		L338.2,108.4z M121.8,153.9h268.4v302.5H121.8V153.9z M69.1,409c-4.1,0-7.5,3.4-7.5,7.5v39.9H36.5c-11.9,0-21.5-9.7-21.5-21.5
		V175.4c0-11.9,9.7-21.5,21.5-21.5h25.1v227.6c0,4.1,3.4,7.5,7.5,7.5s7.5-3.4,7.5-7.5V153.9h12.7c4.1,0,7.5-3.4,7.5-7.5
		s-3.4-7.5-7.5-7.5H77c1-8.6,3.8-16.9,8.1-24.5L96.3,95c12.1-21,34.8-34.1,59-34.1h7v27.2h-5.6c-13.6,0-26.3,7.3-33.1,19.1l-12.7,22
		c-2.7,4.8-4.2,10.2-4.2,15.6v311.5H76.6v-39.9C76.6,412.3,73.2,409,69.1,409L69.1,409z M405.2,153.9h12.7c4.1,0,7.5-3.4,7.5-7.5
		s-3.4-7.5-7.5-7.5h-13.3c-0.7-3.4-1.9-6.6-3.6-9.6l-12.7-22c-6.8-11.8-19.5-19.1-33.1-19.1h-5.6V60.9h7c24.3,0,46.9,13.1,59,34.1
		l11.2,19.4c5.6,9.7,8.5,20.7,8.5,31.9v310.1h-30.2L405.2,153.9L405.2,153.9z M497,434.9c0,11.9-9.7,21.5-21.5,21.5h-25.1V153.9
		h25.1c11.9,0,21.5,9.7,21.5,21.5V434.9z"/>
</g>
</svg>
