<svg width="24.6956mm" height="27.5998mm" viewBox="0 0 662.8 740.74" xmlns="http://www.w3.org/2000/svg" xmlns:xlink="http://www.w3.org/1999/xlink" shape-rendering="geometricPrecision" image-rendering="optimizeQuality" fill-rule="evenodd"><defs><radialGradient id="A" gradientTransform="matrix(7.48098 -0 -0 7.4808 -2148 -2487)" cx="331.44" cy="383.72" r="1328.84" fx="331.44" fy="383.72" xlink:href="#AF"><stop offset="0" stop-color="#fcf4a7"/><stop offset="1" stop-color="#dfc75c"/></radialGradient><radialGradient id="B" gradientTransform="matrix(15.4048 -0 -0 15.4042 -3442 -6197)" xlink:href="#A" xmlns:xlink="http://www.w3.org/1999/xlink" cx="238.97" cy="430.19" r="710.99" fx="238.97" fy="430.19"/><radialGradient id="C" gradientTransform="matrix(15.4046 -0 -0 15.4044 -6106 -6197)" xlink:href="#A" xmlns:xlink="http://www.w3.org/1999/xlink" cx="423.91" cy="430.19" r="710.99" fx="423.91" fy="430.19"/><radialGradient id="D" gradientTransform="matrix(3.9574 -0 -0 3.95734 -980 -953)" xlink:href="#A" xmlns:xlink="http://www.w3.org/1999/xlink" cy="322.25" r="816.64" fy="322.25"/><radialGradient id="E" gradientTransform="matrix(1.10382 -0 -0 1.10381 -34 -10)" cx="329.38" cy="95.38" r="834.82" fx="329.38" fy="95.38" xlink:href="#AF"><stop offset="0" stop-color="#fcf5d4"/><stop offset=".99" stop-color="#fee99c"/><stop offset="1" stop-color="#ffde65"/></radialGradient><radialGradient id="F" gradientTransform="matrix(-40.5018 -4.96004E-15 4.95979E-15 -40.4998 18899 28766)" cx="455.39" cy="693.17" r="199.21" fx="455.39" fy="693.17" xlink:href="#AF"><stop offset="0" stop-color="#fbeb1b"/><stop offset="1" stop-color="#ab7919"/></radialGradient><radialGradient id="G" gradientTransform="matrix(1.09539 -0 -0 1.09542 -31 -6)" xlink:href="#E" xmlns:xlink="http://www.w3.org/1999/xlink" cx="328.11" cy="60.81" r="932.44" fx="328.11" fy="60.81"/><radialGradient id="H" gradientTransform="matrix(7.5413 -0 -0 7.54111 -2092 -2423)" cx="319.74" cy="370.37" r="1691.91" fx="319.74" fy="370.37" xlink:href="#AF"><stop offset="0" stop-color="#fcf4a7"/><stop offset="1" stop-color="#cfad14"/></radialGradient><radialGradient id="I" gradientTransform="matrix(1.24029 -0 -0 1.24024 -51 -55)" cx="211.34" cy="230.2" r="917.83" fx="211.34" fy="230.2" xlink:href="#AF"><stop offset="0" stop-color="#fbf3ca"/><stop offset="1" stop-color="#d4bc77"/></radialGradient><radialGradient id="J" gradientTransform="matrix(1.28221 -0 -0 1.07359 -91 -46)" xlink:href="#H" xmlns:xlink="http://www.w3.org/1999/xlink" cx="322.47" cy="631.9" r="1309.48" fx="322.47" fy="631.9"/><radialGradient id="K" gradientTransform="matrix(40.5004 -0 -0 40.4985 -7581 -27379)" xlink:href="#F" xmlns:xlink="http://www.w3.org/1999/xlink" cx="191.91" fx="191.91"/><radialGradient id="L" gradientTransform="matrix(-47.9889 -5.87694E-15 5.87687E-15 -47.9883 18984 31442)" xlink:href="#F" xmlns:xlink="http://www.w3.org/1999/xlink" cx="387.51" cy="641.82" r="150.42" fx="387.51" fy="641.82"/><radialGradient id="M" gradientTransform="matrix(47.9887 -0 -0 47.9881 -9433 -30158)" xlink:href="#F" xmlns:xlink="http://www.w3.org/1999/xlink" cx="200.75" cy="641.82" r="150.42" fx="200.75" fy="641.82"/><radialGradient id="N" gradientTransform="matrix(37.5376 -0 -0 37.5381 -3482 -18196)" xlink:href="#F" xmlns:xlink="http://www.w3.org/1999/xlink" cx="95.3" cy="497.99" r="3149.65" fx="95.3" fy="497.99"/><radialGradient id="O" gradientTransform="matrix(-37.5374 -4.59701E-15 4.59707E-15 -37.5379 10378 19192)" xlink:href="#F" xmlns:xlink="http://www.w3.org/1999/xlink" cx="269.3" cy="498.01" r="3149.65" fx="269.3" fy="498.01"/><linearGradient id="P" x1="15.51" y1="444.8" x2="67.96" y2="426.64" xlink:href="#AF"><stop offset="0" stop-color="#fcd63d"/><stop offset=".17" stop-color="#fcd63d"/><stop offset=".38" stop-color="#fbf295"/><stop offset=".51" stop-color="#fcd63d"/><stop offset=".64" stop-color="#f0c535"/><stop offset=".91" stop-color="#dfb52b"/><stop offset="1" stop-color="#fcd63d"/></linearGradient><linearGradient id="Q" xlink:href="#P" xmlns:xlink="http://www.w3.org/1999/xlink" x1="621.41" y1="341.12" x2="559.74" y2="313.7"/><linearGradient id="R" xlink:href="#P" xmlns:xlink="http://www.w3.org/1999/xlink" x1="69.54" y1="169.62" x2="129.84" y2="136.78"/><linearGradient id="S" xlink:href="#P" xmlns:xlink="http://www.w3.org/1999/xlink" x1="611.42" y1="149.78" x2="577.88" y2="131.52"/><linearGradient id="T" xlink:href="#P" xmlns:xlink="http://www.w3.org/1999/xlink" x1="43.39" y1="251.93" x2="104.86" y2="221.89"/><linearGradient id="U" xlink:href="#P" xmlns:xlink="http://www.w3.org/1999/xlink" x1="619.41" y1="251.93" x2="557.94" y2="221.9"/><linearGradient id="V" xlink:href="#P" xmlns:xlink="http://www.w3.org/1999/xlink" x1="53.7" y1="210.38" x2="114.99" y2="178.73"/><linearGradient id="W" xlink:href="#P" xmlns:xlink="http://www.w3.org/1999/xlink" x1="609.1" y1="210.37" x2="547.8" y2="178.74"/><linearGradient id="X" xlink:href="#P" xmlns:xlink="http://www.w3.org/1999/xlink" x1="68.32" y1="431.29" x2="119.21" y2="413.67"/><linearGradient id="Y" xlink:href="#P" xmlns:xlink="http://www.w3.org/1999/xlink" x1="645.06" y1="239.34" x2="615.07" y2="224.68"/><linearGradient id="Z" xlink:href="#P" xmlns:xlink="http://www.w3.org/1999/xlink" x1="17.74" y1="239.34" x2="47.73" y2="224.68"/><linearGradient id="a" xlink:href="#P" xmlns:xlink="http://www.w3.org/1999/xlink" x1="37.67" y1="296.63" x2="101.46" y2="268.22"/><linearGradient id="b" xlink:href="#P" xmlns:xlink="http://www.w3.org/1999/xlink" x1="594.47" y1="431.29" x2="543.59" y2="413.67"/><linearGradient id="c" xlink:href="#P" xmlns:xlink="http://www.w3.org/1999/xlink" x1="46.84" y1="555.28" x2="129.71" y2="537.79"/><linearGradient id="d" xlink:href="#P" xmlns:xlink="http://www.w3.org/1999/xlink" x1="120.43" y1="528.05" x2="160.57" y2="519.58"/><linearGradient id="e" xlink:href="#P" xmlns:xlink="http://www.w3.org/1999/xlink" x1="28.42" y1="502.16" x2="95.98" y2="481.62"/><linearGradient id="f" xlink:href="#P" xmlns:xlink="http://www.w3.org/1999/xlink" x1="542.37" y1="528.05" x2="502.23" y2="519.58"/><linearGradient id="g" xlink:href="#P" xmlns:xlink="http://www.w3.org/1999/xlink" x1="92.38" y1="479.64" x2="136.31" y2="466.29"/><linearGradient id="h" xlink:href="#P" xmlns:xlink="http://www.w3.org/1999/xlink" x1="611.46" y1="383.67" x2="551.95" y2="361.89"/><linearGradient id="i" xlink:href="#P" xmlns:xlink="http://www.w3.org/1999/xlink" x1="570.42" y1="479.64" x2="526.49" y2="466.29"/><linearGradient id="j" xlink:href="#P" xmlns:xlink="http://www.w3.org/1999/xlink" x1="32.87" y1="193.2" x2="62.66" y2="177.82"/><linearGradient id="k" xlink:href="#P" xmlns:xlink="http://www.w3.org/1999/xlink" x1="593.27" y1="169.61" x2="532.95" y2="136.8"/><linearGradient id="l" xlink:href="#P" xmlns:xlink="http://www.w3.org/1999/xlink" x1="625.13" y1="296.63" x2="561.34" y2="268.22"/><linearGradient id="m" xlink:href="#P" xmlns:xlink="http://www.w3.org/1999/xlink" x1="580.18" y1="126.13" x2="525.27" y2="93.62"/><linearGradient id="n" xlink:href="#P" xmlns:xlink="http://www.w3.org/1999/xlink" x1="629.92" y1="193.2" x2="600.13" y2="177.82"/><linearGradient id="o" xlink:href="#P" xmlns:xlink="http://www.w3.org/1999/xlink" x1="615.96" y1="555.28" x2="533.09" y2="537.79"/><linearGradient id="p" xlink:href="#P" xmlns:xlink="http://www.w3.org/1999/xlink" x1="51.34" y1="383.67" x2="110.85" y2="361.89"/><linearGradient id="q" xlink:href="#P" xmlns:xlink="http://www.w3.org/1999/xlink" x1="7.01" y1="339.52" x2="39.51" y2="325.07"/><linearGradient id="r" xlink:href="#P" xmlns:xlink="http://www.w3.org/1999/xlink" x1="634.38" y1="502.16" x2="566.82" y2="481.62"/><linearGradient id="s" xlink:href="#P" xmlns:xlink="http://www.w3.org/1999/xlink" x1="653.39" y1="288.07" x2="624.39" y2="275.15"/><linearGradient id="t" xlink:href="#P" xmlns:xlink="http://www.w3.org/1999/xlink" x1="647.29" x2="594.84"/><linearGradient id="u" xlink:href="#P" xmlns:xlink="http://www.w3.org/1999/xlink" x1="41.38" y1="341.12" x2="103.05" y2="313.7"/><linearGradient id="v" xlink:href="#P" xmlns:xlink="http://www.w3.org/1999/xlink" x1="9.4" y1="288.07" x2="38.41" y2="275.15"/><linearGradient id="w" xlink:href="#P" xmlns:xlink="http://www.w3.org/1999/xlink" x1="82.62" y1="126.13" x2="137.53" y2="93.62"/><linearGradient id="x" xlink:href="#P" xmlns:xlink="http://www.w3.org/1999/xlink" x1="9.78" y1="391.63" x2="51.19" y2="376.48"/><linearGradient id="y" xlink:href="#P" xmlns:xlink="http://www.w3.org/1999/xlink" x1="51.37" y1="149.78" x2="84.92" y2="131.52"/><linearGradient id="z" xlink:href="#P" xmlns:xlink="http://www.w3.org/1999/xlink" x1="653.02" y1="391.63" x2="611.61" y2="376.48"/><linearGradient id="AA" xlink:href="#P" xmlns:xlink="http://www.w3.org/1999/xlink" x1="655.78" y1="339.52" x2="623.29" y2="325.07"/><radialGradient id="AB" gradientTransform="matrix(2.02187 -0 -0 2.0219 -346 -662)" cx="338.33" cy="647.74" r="651.91" fx="338.33" fy="647.74" xlink:href="#AF"><stop offset="0" stop-color="#f4cb51"/><stop offset="1" stop-color="#ae985d"/></radialGradient><radialGradient id="AC" gradientTransform="matrix(2.79713 -0 -0 2.79717 -609 -1164)" xlink:href="#AB" xmlns:xlink="http://www.w3.org/1999/xlink" cx="338.81" cy="647.81" r="536.19" fx="338.81" fy="647.81"/><linearGradient id="AF" gradientUnits="userSpaceOnUse"/></defs><path d="M331.43 740.74v-.02c181.64-45.77 283.1-197.3 307.85-448.76 4.86-49.35 6.76-102.55 5.74-159.56-43.2-29.77-74.77-69.9-93.7-115.63C489.2 5.6 410.3 0 331.38 0S173.56 5.6 111.46 16.77C92.54 62.5 60.98 102.63 17.77 132.4c-.9 50.75.5 98.5 4.25 143.18C43.94 536.84 145.8 693.96 331.36 740.7v.02c.02 0 .03-.01.05-.01s.03.01.05.01z" fill="#a16f29"/><path d="M118.87 25.48C188.2 14.2 259.82 8.55 331.43 8.55S474.66 14.2 544 25.48c20.92 48.3 55.88 82.54 92.83 114.8.4 58.9-2.24 113.98-8.07 165-26.65 232.86-120.1 381-297.28 422.92-.02.01-.03.01-.05.01s-.03.01-.05.01C154.2 686.25 60.75 538.12 34.1 305.26c-5.84-51-8.47-106.08-8.07-165 36.96-32.25 71.9-66.5 92.83-114.8z" fill="#a9a6a5"/><path d="M130.85 40.53c64.24-10.73 132.4-16.1 200.6-16.1s136.35 5.37 200.6 16.1c25.58 44.67 55.6 79.44 91.83 110.8-.37 53.35-3.13 104.5-8.9 152.8-24.48 204.63-103.12 358.22-283.47 412.15v.03c-.02-.01-.03-.01-.05-.01-.02.01-.03.01-.05.01v-.03C150.26 662.12 71.72 507.44 47.6 301.5c-5.57-47.53-8.23-97.78-8.6-150.17 36.23-31.36 66.25-66.13 91.83-110.8z" fill="url(#H)"/><path d="M139.84 49.54c62.35-10.1 127-15.16 191.62-15.16s129.26 5.05 191.6 15.16c31.36 50.08 62.14 83.35 90.83 106.8.25 51.76-2.4 101.27-8.15 147.92-25.5 207.32-111.87 358.48-274.24 402.06v.03c-.01 0-.03-.01-.05-.01-.02.01-.03.01-.05.01v-.03C171.33 663.37 85.13 515.87 58.27 313.08c-6.52-49.22-9.54-101.7-9.27-156.73 28.7-23.46 59.47-56.73 90.83-106.8z" fill="#3a3735"/><path d="M331.5 655.43v-.03c121.47-44.2 198.28-134.93 222.4-286.92 7.38-46.53 9.82-98.8 7.1-157.24-33.27-20.88-54.57-49-71.87-85.84-33.48-8.92-95.6-13.37-157.73-13.36s-124.2 4.46-157.6 13.36c-17.3 36.85-38.6 64.96-71.87 85.84-2.73 58.44-.3 110.7 7.1 157.24 24.1 152 100.93 242.7 222.4 286.92v.03c.02-.01.03-.01.05-.02.02.01.03.01.05.02z" fill="url(#A)"/><path d="M331.5 646.2c-.01-.01-.03-.01-.05-.02-.02.01-.03.01-.05.02v-.04c-113.5-43.73-190.46-130.1-213.53-279.35-6.76-43.72-8.9-92.83-5.97-147.84 31.36-24.95 53.48-52.9 68.87-85.84 42.85-7.96 96.8-11.9 150.75-11.86 53.94.02 107.85 4 150.6 11.86 15.4 32.94 37.52 60.9 68.87 85.84 2.92 55 .8 104.12-5.97 147.84C521.95 516.05 445 602.44 331.5 646.16v.04z" fill="#a9a6a5"/><path d="M74.26 438.64c-25.06-69.98-56.65-203.98 37.27-336.6-73.15 97.12-89.45 205.35-40.88 342.53 54.18 153.03 157.84 270 374.47 285.98l.62-13.45c-211.1-13.17-303.76-103.93-371.47-278.45z" fill="url(#N)"/><path d="M588.4 438.66c25.06-69.98 56.65-203.98-37.27-336.6 73.15 97.12 89.45 205.35 40.88 342.53-54.18 153.03-157.84 270-374.47 285.98l-.62-13.45c211.1-13.17 303.76-103.93 371.47-278.45z" fill="url(#O)"/><path d="M513.72 476.97c-17.44 39.13-40.47 71.74-68.42 98.6-17.78-17.2-27.5-50.54-29.13-100.03-8.12-111.56-44.33-137.62-82.07-190.72 87.78 25.98 132.26 77.75 161.8 160.02 4.03 12.1 10.33 23.86 17.84 32.13z" fill="url(#C)"/><path d="M217.58 575.56c-27.95-26.86-51-59.47-68.42-98.6 7.5-8.27 13.8-20.03 17.84-32.13 29.52-82.27 74-134.04 161.78-160.02-37.74 53.1-73.95 79.16-82.07 190.72-1.64 49.5-11.35 82.83-29.13 100.03z" fill="url(#B)"/><path d="M141.48 69.55c-.34-2.85-.27-5.25.24-7.22.5-1.96 1.28-3.5 2.35-4.58a7.1 7.1 0 0 1 4.09-2.05c2.42-.4 4.52.35 6.3 2.25 1.78 1.9 2.9 4.82 3.4 8.78.48 4 .06 7.26-1.28 9.77-1.17 2.22-2.97 3.53-5.4 3.93-2.44.4-4.5-.27-6.14-2-1.88-2-3.06-4.95-3.54-8.87zm3.5-.74c.33 2.75 1.03 4.74 2.1 5.97s2.26 1.73 3.6 1.52c1.34-.22 2.37-1.08 3.08-2.6.72-1.5.9-3.68.56-6.5-.34-2.77-1-4.75-2.03-5.94s-2.22-1.67-3.6-1.44-2.43 1.08-3.14 2.56-.9 3.62-.55 6.43zm20-5.05l-3.25.46-.35-3.3c-.2-1.86-.14-3.33.17-4.4s.98-1.96 2-2.66l.84 1.82a3.1 3.1 0 0 0-1.24 1.44 5.1 5.1 0 0 0-.23 2.28l1.58-.23.5 4.6zm4.67 13.35l-.4-4.37 7.5-16.67-7.9.97-.37-4.06 12.4-1.52.34 3.77-7.8 17.33 9.65-1.18.37 4.05-13.78 1.68zM184.5 50.9l6.78-.83c1.85-.23 3.18-.2 3.96.12.8.3 1.48.92 2.1 1.85s.97 2.02 1.08 3.28c.1 1.16-.02 2.23-.38 3.22-.35 1-.87 1.75-1.53 2.28 1.04.3 1.9.9 2.55 1.84.66.93 1.05 2.12 1.18 3.56.16 1.75-.07 3.27-.68 4.56-.6 1.3-1.4 2.15-2.36 2.55-.67.28-2.25.57-4.75.88l-5.76.7-2.17-24.02zm3.77 3.58l.5 5.55 2.25-.28 2.5-.4c.57-.18 1-.52 1.3-1.03.3-.5.4-1.15.32-1.95-.06-.7-.25-1.27-.56-1.68s-.66-.65-1.05-.7-1.5.02-3.3.24l-1.98.24zm.86 9.55l.58 6.42 3.17-.4c1.4-.17 2.28-.37 2.66-.58.38-.22.68-.6.9-1.12.23-.53.3-1.18.23-1.94a3.9 3.9 0 0 0-.6-1.89c-.34-.47-.75-.77-1.24-.9-.5-.13-1.47-.1-2.93.07l-2.77.34zm16.06 8.9l-1.8-24.06 12.6-1.28.3 4.07-9.18.93.4 5.34 8.53-.87.3 4.06-8.53.87.5 6.54 9.5-.96.3 4.05-12.9 1.3zm17.24-2L221 46.83l3.42-.28.64 10.7 6.3-11.26 4.62-.38-5.84 9.9 7.64 14.16-4.44.36-5.36-10.93-2.54 4.26.44 7.28-3.42.28zm18.37-1.3l-1.1-24.1 3.43-.2 1.1 24.12-3.43.2zm6.83-8.47l3.34-.67c.52 3.06 1.82 4.53 3.92 4.4 1.04-.06 1.84-.43 2.4-1.1.57-.67.83-1.47.8-2.4-.02-.55-.15-1-.37-1.38-.23-.37-.56-.67-1-.9s-1.48-.57-3.15-1.05c-1.48-.42-2.58-.92-3.3-1.48-.7-.56-1.28-1.32-1.73-2.28s-.7-2-.75-3.13c-.06-1.3.14-2.5.6-3.6a5.7 5.7 0 0 1 2.02-2.52c.88-.6 2-.93 3.32-1 2-.12 3.6.42 4.77 1.6s1.86 2.96 2.03 5.3l-3.43.42c-.2-1.28-.58-2.17-1.1-2.65s-1.25-.7-2.17-.64c-.93.06-1.63.32-2.1.8a2.2 2.2 0 0 0-.67 1.72c.03.66.28 1.2.76 1.62.47.42 1.54.85 3.2 1.3 1.76.48 3.03 1 3.83 1.6.8.6 1.43 1.4 1.88 2.38s.7 2.2.78 3.66c.1 2.1-.38 3.9-1.43 5.38-1.04 1.5-2.75 2.3-5.1 2.46-4.17.25-6.62-2.36-7.34-7.85zm22.26 6.66l-.6-20.05-5.06.2-.12-4.08 13.53-.55.12 4.08-5.05.2.6 20.05-3.43.14zm10.77-12.73c-.04-2.87.3-5.25 1-7.13.7-1.87 1.64-3.28 2.8-4.2 1.16-.93 2.6-1.42 4.27-1.45 2.44-.05 4.44 1 6 3.12s2.38 5.2 2.44 9.2c.06 4.04-.7 7.2-2.3 9.52a6.8 6.8 0 0 1-5.77 3.13c-2.46.05-4.43-.9-5.88-2.86-1.66-2.24-2.52-5.34-2.58-9.3zm3.54-.24c.04 2.78.53 4.85 1.45 6.22.93 1.37 2.06 2.04 3.4 2.02 1.35-.03 2.46-.74 3.33-2.14s1.28-3.52 1.24-6.38c-.04-2.8-.5-4.86-1.4-6.18s-2.03-1.97-3.43-1.94-2.53.73-3.4 2.1-1.26 3.46-1.22 6.3zm17.2 11.5V42.2h3.35l6.98 16.13V42.2h3.2v24.15h-3.46l-6.87-15.74v15.74h-3.2zm30.4-.34V41.86h7.25c1.85 0 3.18.22 3.97.65s1.45 1.2 1.96 2.26.76 2.35.76 3.85c0 1.9-.4 3.4-1.17 4.56s-1.9 1.88-3.32 2.17c.74.6 1.34 1.3 1.83 2.02.48.73 1.14 2.04 1.97 3.93l2.07 4.7h-4.1l-2.5-5.26c-.9-1.9-1.5-3.1-1.83-3.57s-.66-.8-1.02-1-.94-.27-1.73-.27h-.7V66h-3.44zm3.44-13.94h2.55c1.56 0 2.55-.08 2.98-.24.42-.16.77-.48 1.03-.97.27-.48.4-1.12.4-1.93 0-.77-.13-1.4-.4-1.85-.27-.47-.62-.8-1.07-.97-.32-.12-1.26-.18-2.8-.18h-2.7v6.13zm15.07 13.97l.36-24.15 12.65.26-.06 4.08-9.2-.2-.08 5.35 8.56.17-.06 4.07-8.56-.17-.1 6.57 9.53.2-.06 4.07-12.96-.26zm16.44-7.2l3.37-.4c.33 3.1 1.55 4.66 3.65 4.7 1.04.02 1.86-.28 2.46-.9s.9-1.4.93-2.33c.01-.55-.1-1.02-.3-1.4s-.5-.7-.93-.97c-.42-.25-1.45-.7-3.08-1.3-1.45-.54-2.52-1.13-3.2-1.74-.67-.62-1.2-1.43-1.6-2.42a8.4 8.4 0 0 1-.56-3.18 8 8 0 0 1 .83-3.54 5.5 5.5 0 0 1 2.17-2.35c.92-.52 2.04-.76 3.37-.74 2 .04 3.56.7 4.66 2 1.1 1.28 1.67 3.1 1.7 5.45l-3.45.14c-.13-1.3-.45-2.2-.94-2.74-.5-.52-1.2-.8-2.13-.8s-1.64.2-2.15.63-.77 1-.78 1.66a2.3 2.3 0 0 0 .65 1.68c.45.46 1.5.97 3.1 1.54 1.72.62 2.96 1.26 3.72 1.9a6.2 6.2 0 0 1 1.73 2.52c.4 1.03.58 2.26.56 3.7a8.3 8.3 0 0 1-1.74 5.25c-1.13 1.4-2.88 2.08-5.24 2.04-4.18-.1-6.46-2.9-6.85-8.43zm17.66 8.58l.72-24.14 5.53.23c2.06.08 3.4.25 4.03.5 1 .42 1.8 1.25 2.43 2.5a9.9 9.9 0 0 1 .84 4.75c-.05 1.74-.38 3.2-.98 4.35a5.3 5.3 0 0 1-2.2 2.4c-.86.44-2.33.62-4.4.54l-2.25-.1-.27 9.1-3.43-.14zm4.03-19.9l-.2 6.85 1.9.08c1.28.05 2.15-.02 2.6-.2s.85-.55 1.16-1.08.48-1.2.5-1.98c.02-.8-.1-1.48-.4-2.05-.3-.56-.65-.94-1.1-1.15s-1.37-.34-2.8-.4l-1.67-.07zm14.23-3.5l3.42.2-.6 13.06c-.1 2.03-.1 3.35-.05 3.97.1 1.07.42 1.92.97 2.53s1.28.95 2.22 1c.8.05 1.45-.12 1.97-.5s.9-.93 1.1-1.65a24.2 24.2 0 0 0 .49-4.68l.6-13.34 3.44.2-.57 12.67c-.15 3.24-.4 5.57-.76 7a6 6 0 0 1-2.17 3.38c-1.08.83-2.48 1.2-4.2 1.1-1.77-.1-3.14-.56-4.1-1.37-.96-.8-1.64-1.88-2.03-3.26-.4-1.37-.5-3.86-.34-7.47l.58-12.86zm18.9 1.07l6.8.55c1.86.15 3.15.46 3.9.9.73.46 1.32 1.2 1.78 2.24s.65 2.2.57 3.45c-.07 1.16-.36 2.2-.86 3.1a4.7 4.7 0 0 1-1.85 1.94c.98.5 1.73 1.27 2.24 2.33.5 1.05.72 2.3.63 3.75a8.3 8.3 0 0 1-1.36 4.35c-.8 1.15-1.7 1.83-2.7 2.04-.7.14-2.3.1-4.8-.1l-5.78-.47 1.45-24.1zm3.18 4.3l-.34 5.57 2.26.2c1.36.1 2.2.15 2.52.12a2 2 0 0 0 1.42-.75c.36-.44.56-1.06.6-1.86.04-.7-.06-1.3-.3-1.77s-.55-.77-.93-.9-1.47-.28-3.28-.43l-1.98-.16zm-.58 9.58l-.4 6.44 3.18.26c1.4.1 2.3.1 2.7-.03.4-.14.76-.45 1.06-.93.3-.47.47-1.1.52-1.86.05-.8-.06-1.45-.3-1.98a2.4 2.4 0 0 0-1.08-1.14c-.46-.23-1.43-.4-2.9-.52l-2.78-.23zm14.55 11.9l1.44-23.9 3.42.28-1.2 19.83 8.55.7-.24 4.06-11.97-.97zm15.67 1.7l1.8-24.06 3.42.35-1.8 24.06-3.42-.35zm8.08.72l2.17-24.02 3.4.42-.96 10.67 7.9-9.82 4.6.56-7.24 8.57 5.4 15.48-4.43-.54-3.65-11.84-3.14 3.68-.65 7.25-3.42-.42zm33.75 4.22l-3.72-.46-.98-5.64-6.77-.83-1.9 5.3-3.64-.45L488 52.2l3.63.44 4.6 24.84zm-5.44-10.27l-1.52-9.2-3.1 8.63 4.62.56zm8.34 2.88l3.38.02c.05 3.12 1.12 4.82 3.2 5.12 1.03.15 1.87-.05 2.53-.6s1.03-1.28 1.13-2.2c.06-.54.01-1.03-.16-1.44-.16-.4-.45-.77-.84-1.08-.4-.3-1.38-.86-2.94-1.67-1.4-.72-2.4-1.43-3.02-2.12-.6-.7-1.07-1.56-1.36-2.6a8.3 8.3 0 0 1-.27-3.23 7.8 7.8 0 0 1 1.14-3.42c.62-.97 1.4-1.66 2.37-2.07.96-.4 2.1-.5 3.42-.32 2 .28 3.48 1.13 4.46 2.54s1.38 3.3 1.2 5.63l-3.44-.28c-.02-1.3-.24-2.25-.7-2.84-.44-.58-1.13-.94-2.05-1.07s-1.65-.01-2.2.37a2.1 2.1 0 0 0-.92 1.56c-.07.66.1 1.24.5 1.75.4.5 1.4 1.15 2.95 1.9 1.66.83 2.83 1.6 3.53 2.35.7.75 1.2 1.65 1.5 2.72a10.1 10.1 0 0 1 .22 3.76c-.22 2.08-.96 3.75-2.2 5s-3.05 1.72-5.4 1.4c-4.15-.6-6.16-3.66-6.05-9.2zm17.14 10.64l2.9-23.9 3.4.56-2.9 23.9-3.4-.56z" fill="url(#G)"/><path d="M186.95 114.17l-5.43.76-3.13-6.55-9.88 1.4-1.07 7.14-5.3.75 5.4-31.55 5.3-.74 14.15 28.8zm-10.88-10.65L171.1 92.8l-1.78 11.67 6.75-.95zm12.08-20.28l9.16-.96c2.32-.24 4.1-.17 5.32.23 1.23.4 2.4 1.15 3.54 2.27 1.12 1.12 2.06 2.64 2.84 4.53.77 1.9 1.3 4.3 1.6 7.2.28 2.62.22 4.93-.17 6.93s-.98 3.6-1.77 4.84a8.6 8.6 0 0 1-3.03 2.9c-1.22.7-2.85 1.17-4.88 1.38l-9.43 1-3.2-30.32zm5.54 4.6l2.1 20.08 3.76-.4c1.62-.17 2.76-.44 3.46-.82s1.24-.9 1.63-1.56c.4-.65.68-1.67.85-3.02.16-1.36.13-3.12-.1-5.28-.24-2.24-.58-4-1.03-5.27a7.2 7.2 0 0 0-1.77-2.91 4.7 4.7 0 0 0-2.54-1.22 19.7 19.7 0 0 0-4.1.16l-2.28.24zm24.54 22.4l-2.1-30.17 5.02-.35 1.75 25.04 12.53-.87.36 5.12-17.55 1.23zm22.98-1.68l-2.13-30.42 5.02-.35 2.13 30.42-5.02.35zm18.37-1.16l-.67-12.8-10.06-17.16 5.9-.3 6.5 11.74 5.14-12.35 5.8-.3-8.26 18.16.67 12.77-5.02.27zm38-1.68l-5.5.2-2.42-6.85-9.97.35-1.82 7-5.37.2 8.66-30.8 5.34-.2 11.06 30.12zM287.87 94l-3.82-11.2-3 11.43 6.8-.24zm36.92 11.33l-8.92-30.5h5.47l6.33 22.57 6.1-22.57h5.37l-8.95 30.5h-5.4zm38.83 0h-5.5l-2.18-6.92h-9.98l-2.06 6.92h-5.37l9.73-30.5h5.34l10 30.5zm-9.3-12.06l-3.43-11.32-3.4 11.32h6.82zm11.73 12.5l.2-5.55 13.82-19.3-11.66-.4.18-5.16 18.3.64-.17 4.78-14.4 20.08 14.22.5-.18 5.13-20.3-.7zm25.3.92l1.07-30.47 5.03.18-1.06 30.47-5.03-.18zm11.8.52l2.13-30.4 10.6.74c2.7.2 4.63.6 5.75 1.23s2.02 1.64 2.67 3.04.9 3.04.78 4.92c-.17 2.38-.87 4.26-2.1 5.63s-2.93 2.17-5.06 2.4c1.03.85 1.86 1.76 2.5 2.73a36.3 36.3 0 0 1 2.54 5.15l2.6 6.14-6-.42-3.2-6.87-2.36-4.68c-.43-.63-.9-1.08-1.4-1.35a6.7 6.7 0 0 0-2.51-.52l-1.04-.07-.9 12.7-5.02-.35zm6.25-17.2l3.73.26c2.28.16 3.74.16 4.37.01a2.8 2.8 0 0 0 1.6-1.11c.43-.58.68-1.38.75-2.4a4.2 4.2 0 0 0-.42-2.37c-.35-.62-.84-1.06-1.5-1.33-.46-.18-1.82-.36-4.07-.52l-3.94-.28-.54 7.72zm21.02 19.34l2.1-30.16 5.02.35-1.75 25.04 12.53.88-.36 5.13-17.55-1.23zm22.98 2.2l3.2-30.32 5 .53-3.2 30.32-5-.53zm24.3-8.37l.63-5.1 10.8 1.33-1.48 12.05a13.5 13.5 0 0 1-5.03 2.73c-2.1.68-4.17.9-6.18.65-2.45-.3-4.53-1.17-6.26-2.6-1.72-1.44-2.98-3.42-3.78-5.96-.8-2.53-1-5.43-.6-8.67.4-3.33 1.3-6.1 2.7-8.34 1.4-2.23 3.05-3.83 4.96-4.78a11.2 11.2 0 0 1 6.56-.97c2.96.36 5.24 1.4 6.84 3.13 1.6 1.72 2.47 4.07 2.62 7.05l-5.1.53c-.18-1.6-.72-2.87-1.6-3.82-.9-.94-2.02-1.5-3.4-1.67-2.13-.26-3.96.36-5.48 1.85-1.52 1.5-2.5 3.94-2.9 7.34-.45 3.65-.08 6.5 1.12 8.6 1.03 1.78 2.58 2.8 4.68 3.06.98.12 2.02.02 3.13-.3 1.1-.34 2.13-.85 3.05-1.55l.47-3.84-5.74-.7zm16.04 13.6l4.77-30.1 4.97.8-4.77 30.1-4.97-.8z" fill="url(#E)"/><path d="M486.28 526.74a299.6 299.6 0 0 1-33.9 41.8c-18.6-16.93-27.57-42.5-29.12-102.45-9.63-90.9-31.92-123.34-66.13-162.97 49.57 44.23 82.37 77.53 95.65 151.75 3.16 38.78 16 60.25 33.5 71.87zm23.62-41.5a322.8 322.8 0 0 1-19.9 35.8c-22.17-16.78-26.38-37-31.33-69.74-4.97-34.24-17.86-85.02-83.84-140.53 36.38 12.43 73.6 53.12 95.65 92.7 16.67 36.55 21 65.4 39.4 81.75z" fill="#a2add8"/><path d="M155.3 185.1l4.92-6.28 120.94-50.9c16.54-.8 33.44-1.2 50.34-1.18 16.9.01 33.78.42 50.3 1.22l120.84 50.85 4.92 6.28-138.1-56.3 149.62 87.5-1.8 3.12-150.6-85.82 136.92 106.3-2.2 2.86L363.33 138 485.2 261.26l-2.55 2.55L359.4 141.93l104.75 138.1-2.86 2.2L355 145.3l85.82 150.6-3.12 1.8-87.5-149.62 65.43 160.5-3.33 1.38-67.23-159.76L389 317.88l-3.48.93-45.8-167.17 21.66 171.97-3.57.47-23.6-171.72-.97 173.33h-3.6l-.97-173.33-23.6 171.72-3.57-.47 21.66-171.98-45.8 167.18-3.48-.93L317.8 150.2l-67.23 159.77-3.33-1.38 65.43-160.5-87.5 149.62-3.12-1.8 85.82-150.6-106.3 136.92-2.86-2.2 104.74-138.1L180.22 263.8l-2.55-2.55L299.54 138l-138.1 104.75-2.2-2.86 136.92-106.3-150.6 85.82-1.8-3.12 149.62-87.5-138.1 56.3zm21.33-31.4l2.8-5.14 66.83-18.3a883.6 883.6 0 0 1 27.27-1.93l-96.9 25.38zm212.93-25.33l27.34 1.95 66.56 18.23a230.5 230.5 0 0 0 2.79 5.14l-96.7-25.33z" fill="url(#I)"/><path d="M210.5 568.54c-12.36-12.7-23.68-26.6-33.9-41.8 17.5-11.62 30.34-33.1 33.5-71.87 13.28-74.22 46.1-107.52 95.65-151.75-34.2 39.63-56.5 72.08-66.13 162.97-1.55 59.96-10.5 85.52-29.12 102.45zm-37.63-47.47a327.3 327.3 0 0 1-19.89-35.81c18.42-16.34 22.73-45.2 39.4-81.76 22.06-39.58 59.27-80.27 95.65-92.7-65.98 55.5-78.88 106.3-83.84 140.53-4.95 32.74-9.16 52.96-31.32 69.74z" fill="#a2add8"/><path d="M331.44 179.24c3.64 0 6.6 2.97 6.6 6.6 0 2.84-1.82 5.28-4.35 6.2l.8 2.4v19.44c2.6 1.28 4 4.04 4.6 7.83v14.72c-.24 2.9-.95 5.52-2.7 7.42v4.46a14.5 14.5 0 0 1 6.17 4.38c7.55-4.08 13.95-6.3 19.34-6.14 16.4.15 23.9 11.32 38.74 14.98 9.96 2.77 19.3 3.22 26.1 1.72a13.3 13.3 0 0 1-1.74-6.6 13.5 13.5 0 0 1 13.46-13.46 13.5 13.5 0 0 1 13.46 13.46c0 7.4-3.7 12.07-9.15 14.94l39.08 96.2h16.57c-10.57 15.06-25.87 27.05-58.04 28.04-27.4.07-47.5-9.15-60.35-27.66h15.07l37.83-93.45c-11.15 1.93-24.36.18-31.2-1.44-9.8-1.36-24.12-6.48-36.18-9.72-7-1.06-13.83.76-20.55 3.15a14.5 14.5 0 0 1-8.6 8.64v53.68c11.1 1.2 8.5 16.23 0 17.82 4.03 2.8 6.5 7.17 7.42 13.1V389c-.28 17.42-2.34 32.62-5.4 46.57v10.67H414v6.9h13.77v4.86h16.34v7.3H218.8v-7.3h16.34v-4.86h13.77v-6.9h75.6v-10.67c-3.06-13.95-5.12-29.15-5.4-46.57v-29.02c.92-5.93 3.4-10.3 7.43-13.1-8.5-1.6-11.1-16.63 0-17.82v-53.68a14.5 14.5 0 0 1-8.61-8.64c-6.73-2.4-13.55-4.22-20.55-3.15-12.06 3.24-26.38 8.36-36.18 9.72-6.85 1.62-20.06 3.37-31.2 1.44l37.83 93.45h15.07c-12.84 18.5-32.96 27.73-60.35 27.66-32.18-1-47.48-12.98-58.05-28.04h16.57l39.08-96.2c-5.46-2.87-9.15-7.55-9.15-14.94a13.5 13.5 0 0 1 13.46-13.46 13.5 13.5 0 0 1 13.46 13.46 13.3 13.3 0 0 1-1.74 6.6c6.8 1.5 16.15 1.05 26.1-1.72 14.83-3.67 22.34-14.83 38.74-14.98 5.4-.15 11.8 2.06 19.34 6.14a14.5 14.5 0 0 1 6.18-4.38v-4.46c-1.75-1.9-2.46-4.5-2.7-7.42v-14.72c.6-3.78 2-6.55 4.6-7.83v-19.44l.8-2.4a6.6 6.6 0 0 1-4.35-6.21c0-3.64 2.97-6.6 6.6-6.6zM474.5 367.82l-33.13-83.58v83.58h33.13zm-71.7 0l33.13-83.58v83.58H402.8zm-214.4 0l33.13-83.58v83.58h-33.13zm71.7 0l-33.13-83.58v83.58h33.13z" fill="url(#D)"/><path d="M254.35 670.38c12.47-35.64-30.12-63.95-29.2-64.88 1-.92-26.07 34.2 29.2 64.88z" fill="url(#M)"/><path d="M242.62 670.3c-36.6 23.44-87.4-21.94-85.92-22.78.96-.75 36.2-13.66 85.92 22.78z" fill="url(#K)"/><path d="M408.43 670.38c-12.47-35.64 30.12-63.95 29.2-64.88-1-.92 26.07 34.2-29.2 64.88z" fill="url(#L)"/><path d="M420.15 670.3c36.6 23.44 87.4-21.94 85.92-22.78-.96-.75-36.2-13.66-85.92 22.78z" fill="url(#F)"/><g fill-rule="nonzero"><path d="M42.5 524.82c22 44.85 67.4 59.2 91.14 41.78-.01-.1-.01-.2-.02-.3-.03.64-40.75-13.8-48.74-20.23-.05.6 39.36 15 48.74 20.23v-.08c-27.77-32.73-64.45-55.77-91.12-41.4z" fill="url(#c)"/><path d="M20.7 469.18c17.26 43.74 58.66 59.88 82.64 44.6 0-.1 0-.2.01-.28-.07.58-37.27-15.43-44.3-21.95-.08.53 35.93 16.4 44.3 21.95v-.08C79.98 480.52 47 456.73 20.7 469.18z" fill="url(#e)"/><path d="M5.95 410.25c10.7 43.14 47.23 62.64 71.7 50.62.02-.1.03-.18.04-.27-.13.52-32.88-18.5-38.65-25.37-.14.48 31.54 19.17 38.65 25.37.01-.03.01-.05.01-.08C60.1 426.76 32.1 400.9 5.94 410.25z" fill="url(#P)"/><path d="M1.8 355.57c4.05 42.06 35.26 64.63 59.75 56.1.02-.1.06-.17.08-.25-.2.46-28.04-21.34-32.46-28.5-.2.42 26.72 21.76 32.46 28.5.01-.02.01-.05.02-.07-11.63-34.14-34.2-61.84-59.85-55.77z" fill="url(#x)"/><path d="M0 302.6c-.2 40.46 26.64 64.08 50.3 57.7l.1-.23c-.22.4-24.06-22.38-27.5-29.5-.22.38 22.8 22.63 27.5 29.5l.03-.06c-7.53-33.53-25.97-61.6-50.42-57.4z" fill="url(#q)"/><path d="M7.05 250.2c-6.35 38.5 14.7 64.2 37.45 61.17.04-.07.08-.14.13-.2-.27.35-18.7-24.34-20.77-31.54-.25.32 17.5 24.4 20.77 31.54.01-.02.02-.04.03-.05-1.75-32.93-14.44-62.03-37.6-60.9z" fill="url(#v)"/><path d="M21.13 200.07c-10.98 36.43 4.9 63.02 26.2 62.4.05-.06.1-.12.14-.2-.28.3-13.9-25.24-14.83-32.34-.28.28 12.8 25.14 14.83 32.34.01-.02.03-.03.04-.05 2.85-31.84-4.9-61.16-26.4-62.17z" fill="url(#Z)"/><path d="M41.55 153.46c-15.47 34.06-4.94 61.22 14.58 63 .05-.06.1-.1.16-.17-.3.26-8.87-25.83-8.67-32.78-.3.24 7.93 25.6 8.67 32.78.02-.01.03-.03.04-.04 7.43-30.4 4.75-59.68-14.78-62.8z" fill="url(#j)"/><path d="M67.03 109c-19.28 31.54-13.86 58.76 3.6 62.56l.17-.14c-.3.2-4.07-25.95-2.83-32.67-.3.2 3.27 25.64 2.83 32.67.02-.01.03-.03.05-.04 11.5-28.7 13.56-57.53-3.83-62.38z" fill="url(#y)"/><path d="M150.2 480.93c14.5 33.16 10.2 69.17-15.38 84.93l-.3-.12c-.64-.25 3.75-38.74 4.43-46.77-.54-.3-7.82 36.3-4.43 46.77-.03-.02-.05-.02-.08-.03-24.3-37.17-13.67-77.4 15.75-84.77z" fill="url(#d)"/><path d="M125.94 432.46c11.3 32.73 4.14 67.05-21.4 80.65-.1-.04-.17-.1-.26-.13-.55-.25 6.85-36.87 8.1-44.55-.46-.3-10.34 34.37-8.1 44.55-.02-.01-.05-.02-.08-.04-19.7-36.85-6.66-74.84 21.73-80.48z" fill="url(#g)"/><path d="M109.14 385.42c6.6 32.6-4.53 64.67-30.23 74.94a3.2 3.2 0 0 1-.23-.16c-.46-.28 11.2-34.4 13.28-41.66-.38-.3-14.04 31.76-13.28 41.66-.02-.01-.04-.03-.06-.04-13.6-37.07 3.2-72.08 30.52-74.74z" fill="url(#X)"/><path d="M101.1 339.75c1.38 32.16-13.78 61.33-39.23 67.85-.06-.06-.13-.12-.2-.18-.37-.3 15.57-31.34 18.58-38.04-.3-.32-17.76 28.57-18.58 38.04-.02-.02-.04-.03-.05-.05-7.06-36.85 13.7-68.3 39.47-67.63z" fill="url(#p)"/><path d="M93.96 297.05c-1.4 31.28-18.05 58.36-42.36 63-.06-.06-.1-.12-.16-.18-.3-.3 17.22-29.08 20.58-35.38-.25-.3-19 26.4-20.58 35.38-.01-.02-.03-.03-.05-.05-3.4-35.66 18.57-64.8 42.57-62.77z" fill="url(#u)"/><path d="M94.5 256.1c-6.14 30.06-25.63 53.86-48.72 55.16-.04-.07-.08-.13-.12-.2-.24-.3 20.33-25.58 24.4-31.25-.18-.28-21.56 22.94-24.4 31.25-.01-.02-.02-.04-.03-.05C48 276.67 72.7 251.3 94.5 256.1z" fill="url(#a)"/><path d="M100.9 213.83c-9.8 28.77-30.9 49.77-52.3 48.7a3.9 3.9 0 0 1-.09-.2c-.18-.27 22.14-22.6 26.65-27.75-.13-.26-22.92 20.07-26.65 27.75-.01-.02-.02-.03-.02-.05 6.8-32.74 32.97-55.1 52.4-48.44z" fill="url(#T)"/><path d="M112.58 174.8c-13.42 27.2-35.9 45.22-55.24 41.83-.02-.06-.03-.13-.05-.2-.14-.25 23.64-19.47 28.56-24.02-.1-.24-24 17.06-28.56 24.02 0-.02-.01-.04-.02-.06 11.14-30.8 38.5-49.96 55.3-41.58z" fill="url(#V)"/><path d="M128.72 136.55c-16.6 25.47-39.88 40.65-56.95 35.34-.01-.06-.01-.13-.01-.2-.1-.23 24.55-16.46 29.77-20.46-.06-.22-24.56 14.22-29.77 20.46 0-.02 0-.03-.01-.05 14.9-28.64 42.9-44.83 56.97-35.08z" fill="url(#R)"/><path d="M132.04 85.2c-7.53 29.18-24.8 50.83-42.82 51.25-.03-.06-.05-.12-.08-.18-.16-.2 18.06-23.25 21.73-28.66-.13-.18-18.8 21.15-21.73 28.66 0-.02-.01-.03-.02-.05 4.86-31.62 26.3-55.7 42.92-51.02z" fill="url(#w)"/><path d="M620.3 524.82c-22 44.85-67.4 59.2-91.14 41.78.01-.1.01-.2.02-.3.03.64 40.75-13.8 48.74-20.23.05.6-39.36 15-48.74 20.23v-.08c27.77-32.73 64.45-55.77 91.12-41.4z" fill="url(#o)"/><path d="M642.1 469.18c-17.26 43.74-58.66 59.88-82.64 44.6 0-.1 0-.2-.01-.28.07.58 37.27-15.43 44.3-21.95.08.53-35.93 16.4-44.3 21.95v-.08c23.37-32.9 56.35-56.68 82.65-44.23z" fill="url(#r)"/><path d="M656.85 410.25c-10.7 43.14-47.23 62.64-71.7 50.62-.02-.1-.03-.18-.04-.27.13.52 32.88-18.5 38.65-25.37.14.48-31.54 19.17-38.65 25.37-.01-.03-.01-.05-.01-.08 17.58-33.76 45.58-59.62 71.75-50.27z" fill="url(#t)"/><path d="M661 355.57c-4.05 42.06-35.26 64.63-59.75 56.1-.02-.1-.06-.17-.08-.25.2.46 28.04-21.34 32.46-28.5.2.42-26.72 21.76-32.46 28.5-.01-.02-.01-.05-.02-.07 11.63-34.14 34.2-61.84 59.85-55.77z" fill="url(#z)"/><path d="M662.8 302.6c.2 40.46-26.64 64.08-50.3 57.7l-.1-.23c.22.4 24.06-22.38 27.5-29.5.22.38-22.8 22.63-27.5 29.5l-.03-.06c7.53-33.53 25.97-61.6 50.42-57.4z" fill="url(#AA)"/><path d="M655.75 250.2c6.35 38.5-14.7 64.2-37.45 61.17a2.4 2.4 0 0 0-.13-.21c.27.35 18.7-24.34 20.77-31.54.25.32-17.5 24.4-20.77 31.54-.01-.02-.02-.04-.03-.05 1.75-32.93 14.44-62.03 37.6-60.9z" fill="url(#s)"/><path d="M641.67 200.07c10.98 36.43-4.9 63.02-26.2 62.4-.05-.06-.1-.12-.14-.2.28.3 13.9-25.24 14.83-32.34.28.28-12.8 25.14-14.83 32.34-.01-.02-.03-.03-.04-.05-2.85-31.84 4.9-61.16 26.4-62.17z" fill="url(#Y)"/><path d="M621.25 153.46c15.47 34.06 4.94 61.22-14.58 63-.05-.06-.1-.1-.16-.17.3.26 8.87-25.83 8.67-32.78.3.24-7.93 25.6-8.67 32.78-.02-.01-.03-.03-.04-.04-7.43-30.4-4.75-59.68 14.78-62.8z" fill="url(#n)"/><path d="M595.77 109c19.28 31.54 13.86 58.76-3.6 62.56l-.17-.14c.3.2 4.07-25.95 2.83-32.67.3.2-3.27 25.64-2.83 32.67-.02-.01-.03-.03-.05-.04-11.5-28.7-13.56-57.53 3.83-62.38z" fill="url(#S)"/><path d="M512.6 480.93c-14.5 33.16-10.2 69.17 15.38 84.93l.3-.12c.64-.25-3.75-38.74-4.43-46.77.54-.3 7.82 36.3 4.43 46.77.03-.02.05-.02.08-.03 24.3-37.17 13.67-77.4-15.75-84.77z" fill="url(#f)"/><path d="M536.86 432.46c-11.3 32.73-4.14 67.05 21.4 80.65.1-.04.17-.1.26-.13.55-.25-6.85-36.87-8.1-44.55.46-.3 10.34 34.37 8.1 44.55.02-.01.05-.02.08-.04 19.7-36.85 6.66-74.84-21.73-80.48z" fill="url(#i)"/><path d="M553.66 385.42c-6.6 32.6 4.53 64.67 30.23 74.94a3.2 3.2 0 0 0 .23-.16c.46-.28-11.2-34.4-13.28-41.66.38-.3 14.04 31.76 13.28 41.66.02-.01.04-.03.06-.04 13.6-37.07-3.2-72.08-30.52-74.74z" fill="url(#b)"/><path d="M561.68 339.75c-1.38 32.16 13.78 61.33 39.23 67.85.06-.06.13-.12.2-.18.37-.3-15.57-31.34-18.58-38.04.3-.32 17.76 28.57 18.58 38.04.02-.02.04-.03.05-.05 7.06-36.85-13.7-68.3-39.47-67.63z" fill="url(#h)"/><path d="M568.84 297.05c1.4 31.28 18.05 58.36 42.36 63 .06-.06.1-.12.16-.18.3-.3-17.22-29.08-20.58-35.38.25-.3 19 26.4 20.58 35.38.01-.02.03-.03.05-.05 3.4-35.66-18.57-64.8-42.57-62.77z" fill="url(#Q)"/><path d="M568.3 256.1c6.14 30.06 25.63 53.86 48.72 55.16.04-.07.08-.13.12-.2.24-.3-20.33-25.58-24.4-31.25.18-.28 21.56 22.94 24.4 31.25.01-.02.02-.04.03-.05-2.36-34.36-27.06-59.73-48.87-54.92z" fill="url(#l)"/><path d="M561.9 213.83c9.8 28.77 30.9 49.77 52.3 48.7.03-.06.06-.13.1-.2.18-.27-22.14-22.6-26.65-27.75.13-.26 22.92 20.07 26.65 27.75.01-.02.02-.03.02-.05-6.8-32.74-32.97-55.1-52.4-48.44z" fill="url(#U)"/><path d="M550.22 174.8c13.42 27.2 35.9 45.22 55.24 41.83.02-.06.03-.13.05-.2.14-.25-23.64-19.47-28.56-24.02.1-.24 24 17.06 28.56 24.02 0-.02.01-.04.02-.06-11.14-30.8-38.5-49.96-55.3-41.58z" fill="url(#W)"/><path d="M534.08 136.55c16.6 25.47 39.88 40.65 56.95 35.34.01-.06.01-.13.01-.2.1-.23-24.55-16.46-29.77-20.46.06-.22 24.56 14.22 29.77 20.46 0-.02 0-.03.01-.05-14.9-28.64-42.9-44.83-56.97-35.08z" fill="url(#k)"/><path d="M530.76 85.2c7.53 29.18 24.8 50.83 42.82 51.25.03-.06.05-.12.08-.18.16-.2-18.06-23.25-21.73-28.66.13-.18 18.8 21.15 21.73 28.66 0-.02.01-.03.02-.05-4.86-31.62-26.3-55.7-42.92-51.02z" fill="url(#m)"/></g><path d="M160.72 589c-34.45-1.46-48.97-4.24-53.45-12.2 6.6 60.62 19.5 100.54 41.54 110.2 126-11.2 239.28-11.2 365.28 0 22.04-9.66 34.93-49.57 41.54-110.2-4.48 7.96-19 10.74-53.45 12.2a1644.2 1644.2 0 0 0-341.45 0z" fill="url(#J)"/><g fill-rule="nonzero"><path d="M189.9 648.94c-.16.1-.4.14-.72.14-.25 0-.54-.02-.86-.08l-.96-.16h-4.18l-1.3.1-1.25.14c-.32 0-.57-.1-.77-.3-.2-.2-.3-.4-.3-.63 0-.22.08-.4.24-.55l.48-.4c.13-.16.2-.46.2-.9a115.4 115.4 0 0 0-.46-9.1c-.3-3.76-.67-6.4-1.08-7.94-.16-.58-.35-1.03-.57-1.34-.35-.45-.8-.67-1.34-.67-.8 0-1.2.4-1.2 1.16 0 .22.02.43.07.62l.1.48c.02.13.04.38.05.75l.06.98v14.85c0 .55.05.9.14 1.02.23.13.4.24.53.34.3.22.43.5.43.87 0 .5-.34.77-1.04.77a4.7 4.7 0 0 1-1.19-.12c-.3-.08-.53-.12-.76-.12h-4.6a6.4 6.4 0 0 0-1.26.12l-.74.12c-.6 0-.9-.3-.9-.86 0-.32.1-.56.3-.72l.64-.53a2 2 0 0 0 .24-.84 14.3 14.3 0 0 0 .06-1.47v-27c0-.64-.15-1.1-.46-1.34-.3-.25-.46-.43-.46-.53 0-.42.34-.63 1.04-.63l.6.02.83.07h4.63l1.84-.2a2.1 2.1 0 0 1 .71.1c.2.06.28.24.28.53 0 .25-.17.5-.5.77-.15.13-.26.3-.32.48s-.1.4-.1.62v6.96a1.9 1.9 0 0 0 .1.53c.06.22.2.42.43.57.22.16.5.24.8.24.25 0 .5-.05.74-.14.24-.1.5-.22.74-.38a6 6 0 0 0 2.15-2.3c.42-.77.78-1.87 1.1-3.3s.72-2.5 1.2-3.24c.82-1.28 1.96-1.92 3.4-1.92.77 0 1.42.23 1.96.7.54.46.82 1.2.82 2.18 0 .8-.25 1.42-.74 1.87-.5.45-1.07.67-1.7.67-.25 0-.58-.1-.96-.3s-.65-.3-.82-.3c-.35 0-.7.2-1.05.6s-.53.96-.53 1.66a5.3 5.3 0 0 0 .21 1.49 12.1 12.1 0 0 0 .79 1.88l2.5 5.34a30 30 0 0 1 1.34 9.54l.05 3.45a22.8 22.8 0 0 0 .34 3.1c.1.45.22.73.38.84s.34.22.55.3c.2.1.3.3.3.63s-.1.54-.34.67zm19.97-32.7l-.86.96c-.35.54-.53 1.22-.53 2.02v18.63c0 4.16-.34 6.95-1 8.35-1.05 2.2-3.4 3.3-7.06 3.3-3.27 0-5.54-1-6.82-3.02-.86-1.38-1.3-3.3-1.3-5.76v-23.28c-.06-.35-.2-.64-.43-.86-.1-.06-.2-.14-.3-.24-.23-.2-.34-.42-.34-.67 0-.45.35-.67 1.06-.67.35 0 .65.04.9.12s.65.12 1.22.12h3.5a5.5 5.5 0 0 0 .91-.12 5.5 5.5 0 0 1 .91-.12h1c.64 0 .96.2.96.58 0 .3-.1.54-.3.74l-.6.6c-.15.2-.23.46-.23.82v16.56l-.12 4.44-.12 1.37c0 1.54.1 2.64.34 3.3a2.3 2.3 0 0 0 2.38 1.73c1.32 0 2.18-.85 2.57-2.54.2-.87.3-2.6.3-5.2v-18.27a5.5 5.5 0 0 0-.1-1.18c-.06-.3-.22-.62-.46-.94-.13-.16-.34-.36-.65-.6s-.46-.5-.46-.8c0-.42.25-.63.76-.63.16 0 .42.04.77.12.34.08.6.12.7.12h1.52l1.53-.1c.54 0 .8.13.8.38 0 .13-.14.37-.43.72zm19.25 4.56c0 .93-.13 1.58-.38 1.94-.25.37-.56.55-.9.55-.67 0-1.12-.34-1.34-1l-.57-2.4a7.9 7.9 0 0 0-1.56-3.07c-.62-.67-1.22-1-1.8-1-.3 0-.54.1-.75.27-.2.17-.34.36-.4.55-.06.2-.06.5 0 .96.1.67.14 1.1.14 1.32v26.28c0 .9.12 1.54.36 1.96s.8.62 1.7.62a1.5 1.5 0 0 0 1.3-.7c.32-.46.48-1.02.48-1.66 0-.13-.03-.34-.1-.63l-.1-.62c0-.54.17-1.04.5-1.5.34-.45.82-.67 1.47-.67a1.4 1.4 0 0 1 1.22.57c.27.38.4.86.4 1.44 0 1.1-.63 2.22-1.87 3.38-1.25 1.17-2.67 1.75-4.27 1.75-2.72 0-5.02-1.5-6.9-4.5-2.14-3.42-3.22-8.06-3.22-13.9 0-5.14.93-9.3 2.8-12.46 1.66-2.8 3.6-4.22 5.8-4.22a4.4 4.4 0 0 1 1.73.34l1.13.46c.2.08.44.12.7.12.38 0 .7-.18.9-.55.23-.37.48-.55.77-.55.83 0 1.3.13 1.44.38.1.58.2 1.14.34 1.68l.62 2.35c.25.96.38 1.8.38 2.5zm23.33 27.46c0 .5-.3.77-.94.77a7.6 7.6 0 0 1-.99-.1 9.5 9.5 0 0 0-1.09-.09h-3.78a12.9 12.9 0 0 0-.95.05 17.9 17.9 0 0 0-1.18.14c-.5 0-.76-.2-.76-.62 0-.3.15-.63.45-1 .18-.2.27-.45.27-.77V634.1c0-1.4-.14-2.37-.42-2.88-.3-.5-.78-.77-1.47-.77-.67 0-1.1.2-1.3.62-.2.42-.3.83-.3 1.25v13.8c0 .54.1.9.3 1.08s.3.28.34.3c.2.2.3.46.3.82 0 .48-.3.72-.9.72-.2 0-.5-.03-.95-.1a8.2 8.2 0 0 0-1.04-.09h-3.7a15.8 15.8 0 0 0-1.1.05 25.3 25.3 0 0 0-1.33.14c-.54 0-.8-.2-.8-.62 0-.45.15-.75.46-.9s.46-.66.46-1.5a221.2 221.2 0 0 0-.12-6.92l-.12-4.57.24-16.88c.06-.58-.03-.98-.3-1.2-.2-.1-.34-.2-.46-.3-.1-.1-.17-.26-.17-.48 0-.38.26-.58.77-.58.55.1.94.14 1.16.14h4.5c.83 0 1.4-.02 1.7-.05l.87-.1c.58 0 .87.18.87.53 0 .2-.07.36-.22.5a7.9 7.9 0 0 0-.41.41c-.12.13-.2.28-.23.46a9.9 9.9 0 0 0-.05 1.27v6.48a16.6 16.6 0 0 0 .12 2.35 4.5 4.5 0 0 0 .31 1.2c.12.3.3.5.58.6s.55.17.86.17c.6 0 1-.16 1.26-.48s.38-.78.38-1.4v-8.93c0-.64-.02-1.07-.04-1.3-.03-.23-.07-.38-.13-.48-.14-.13-.24-.23-.3-.3-.17-.16-.25-.35-.25-.58 0-.35.24-.53.7-.53a6.7 6.7 0 0 1 .73.05l.83.1h5.2c.23 0 .5-.02.86-.07a8.5 8.5 0 0 1 .57-.07c.54 0 .8.18.8.53s-.17.6-.5.77c-.34.16-.5.48-.5.96a467.5 467.5 0 0 0 .12 5.96l.12 9.62-.1 9.02-.14 4.06c0 .65.17 1.1.5 1.33.34.24.5.55.5.94zm86.36 0c0 .22-.1.43-.3.63-.2.2-.5.3-.92.3-.26 0-.48-.03-.67-.1s-.4-.1-.62-.17c-.23-.06-.5-.08-.8-.08h-4.27l-1.73.14c-.23.03-.44.07-.65.12a3.5 3.5 0 0 1-.79.07c-.74 0-1.1-.24-1.1-.72s.23-.83.7-1.03c.46-.2.74-.36.84-.46.23-.23.34-.58.34-1.06v-1a3 3 0 0 0-1.87-2.54 5.5 5.5 0 0 0-2.31-.48c-1.34 0-2.3.42-2.88 1.26a3.9 3.9 0 0 0-.58 2.18c0 .7.16 1.24.47 1.6.2.23.48.42.9.6.4.17.6.44.6.8v.6c0 .2-.26.3-.77.3l-2.88-.34-2.06.14c-.16 0-.3-.02-.43-.05-.45-.13-.67-.37-.67-.72 0-.45.25-.75.74-.9.5-.16.84-.38 1.03-.65s.36-.9.5-1.9l.36-2.73c.54-4.07 1.14-7.63 1.78-10.7.45-2.24.94-4.3 1.5-6.2l1.05-3.8a11.6 11.6 0 0 0 .29-2.11c0-.6-.1-1.02-.3-1.25-.2-.22-.56-.46-1.05-.7a1.2 1.2 0 0 1-.74-1.18.8.8 0 0 1 .38-.72c.25-.16.56-.24.9-.24a16 16 0 0 1 1.41.1l1.13.1 1.15-.1c.13-.03.68-.1 1.66-.22s1.67-.17 2.1-.17c.54 0 .94.07 1.18.2s.47.5.7 1.08c.57 1.4 1.3 4.7 2.14 9.84a307.4 307.4 0 0 1 2.23 16.47l.3 2.78c.2 1 .53 1.65 1 1.97.2.13.4.24.63.34.3.2.43.43.43.72zM328 638.14a13.3 13.3 0 0 0-.1-1.83c-.06-.48-.32-1.92-.77-4.32l-.34-1.9c-.1-.6-.14-1.13-.14-1.6v-.96a2.1 2.1 0 0 0-.14-.86c-.2-.38-.5-.58-.96-.58-.96 0-1.78 1.76-2.45 5.28-.5 2.72-.77 4.9-.77 6.53 0 1.12.32 1.87.96 2.26.35.22.88.34 1.58.34h1c.9 0 1.5-.3 1.83-.86.2-.35.3-.85.3-1.5zm34.47-6.9c0 2.72-.17 4.92-.53 6.62-.57 2.78-1.68 5.2-3.3 7.3a11.1 11.1 0 0 1-3.98 3.31c-1.12.48-2.55.72-4.27.72l-1.87-.13-1.08-.14a6 6 0 0 0-.75-.06h-2.98c-.54 0-1 .06-1.4.17a3.6 3.6 0 0 1-.86.17c-.32 0-.6-.1-.84-.27-.24-.17-.36-.38-.36-.6 0-.2.1-.38.3-.58.03-.03.2-.15.48-.36a1.8 1.8 0 0 0 .6-.65c.1-.23.2-.46.22-.7s.05-.55.05-.93c0-.45-.02-1.15-.07-2.1l-.07-1.73v-24.1c0-.35-.2-.62-.55-.82-.37-.2-.55-.43-.55-.72s.1-.46.3-.53c.2-.06.47-.1.8-.1.6 0 1.06.04 1.34.12a3.2 3.2 0 0 0 .86.12h3.7a16.6 16.6 0 0 0 1.39-.05l2.4-.2a9.6 9.6 0 0 1 2.11.22 7.9 7.9 0 0 1 2.21.89c2.75 1.47 4.66 3.85 5.7 7.14.67 2.14 1 4.8 1 8zm-9.03 5.72V625.2c0-2.4-.03-4.02-.1-4.86s-.18-1.58-.35-2.2c-.16-.62-.42-1.07-.78-1.34-.35-.27-.74-.4-1.17-.4-.38 0-.74.14-1.04.4-.3.27-.46.73-.46 1.36a3.6 3.6 0 0 0 .11 1.01c.07.22.1.38.1.48.14.6.22 1.3.22 2.06v16.6l-.14 4.93a9.3 9.3 0 0 1-.14 1.77 4.9 4.9 0 0 0-.14 1.01c0 .7.2 1.2.57 1.48.26.2.58.3.96.3.74 0 1.28-.48 1.63-1.43a8.3 8.3 0 0 0 .41-1.7c.1-.72.2-1.56.24-2.54.05-.97.07-2.05.07-3.23V637zm33.32-5.22c0 3.9-.3 7-.9 9.26-.8 2.98-2.2 5.2-4.22 6.62-1.6 1.12-3.26 1.68-5 1.68a8.9 8.9 0 0 1-4.42-1.15 11.6 11.6 0 0 1-4.7-5.23c-1.44-3-2.16-6.94-2.16-11.8 0-5 .94-8.98 2.83-11.95 1.9-2.98 4.38-4.47 7.5-4.47 1.4 0 2.7.25 3.9.74 1.2.5 2.28 1.27 3.24 2.33 1.63 1.8 2.75 4.24 3.36 7.34.38 1.9.58 4.1.58 6.63zm-8.16 14.88a4.1 4.1 0 0 0-.21-1.2c-.14-.45-.24-.8-.3-1.06a15 15 0 0 1-.25-3.41v-20.6c0-1.63-.2-2.75-.6-3.36s-.98-.9-1.75-.9c-.58 0-1.02.15-1.32.46a1.4 1.4 0 0 0-.46 1.03 16.9 16.9 0 0 1 .41 1.11c.08.25.13.54.17.86.03.32.05 1.07.05 2.25v22.04c0 1.2.24 2.16.73 2.93s1.15 1.15 2 1.15c.52 0 .9-.14 1.16-.43s.4-.58.4-.86zm27.32-4.32c0 .22-.02.5-.07.86s-.14.82-.3 1.42a17.7 17.7 0 0 0-.36 2.02c-.1.75-.14 1.56-.14 2.42 0 .26-.02.46-.07.63-.05.16-.3.24-.74.24a2.1 2.1 0 0 1-1.1-.26 24.5 24.5 0 0 0-.91-.53c-.32-.18-1.07-.26-2.26-.26h-7.92L391 649l-.86.05c-.64 0-.96-.24-.96-.72 0-.25.1-.46.3-.63.2-.16.43-.34.65-.53.2-.3.3-.98.3-2.06v-27.18c0-.67-.1-1.1-.3-1.27-.2-.18-.36-.3-.46-.4-.22-.2-.34-.4-.34-.63 0-.42.22-.63.67-.63a8 8 0 0 1 .95.13 6.5 6.5 0 0 0 .91.13h4.5c.8 0 1.32-.04 1.58-.13a2.7 2.7 0 0 1 .82-.13c.6 0 .9.25.9.73 0 .3-.16.53-.48.72l-.43.22c-.1.05-.16.17-.2.36l-.1 28.03c0 .84.16 1.45.48 1.83s.67.58 1.06.58c.54 0 1.04-.2 1.5-.63.64-.57 1.1-1.5 1.4-2.73a5.5 5.5 0 0 1 .65-1.75c.27-.43.73-.65 1.37-.65.7 0 1.06.2 1.06.62zm23.43 5.95c0 .22-.1.43-.3.63-.2.2-.5.3-.92.3-.26 0-.48-.03-.67-.1s-.4-.1-.62-.17c-.23-.06-.5-.08-.8-.08h-4.27l-1.74.14c-.23.03-.44.07-.65.12a3.5 3.5 0 0 1-.79.07c-.74 0-1.1-.24-1.1-.72s.23-.83.7-1.03c.46-.2.74-.36.84-.46.23-.23.34-.58.34-1.06v-1a3 3 0 0 0-1.87-2.54 5.5 5.5 0 0 0-2.31-.48c-1.34 0-2.3.42-2.88 1.26a3.9 3.9 0 0 0-.58 2.18c0 .7.16 1.24.47 1.6.2.23.48.42.9.6.4.17.6.44.6.8v.6c0 .2-.26.3-.77.3l-2.88-.34-2.06.14c-.16 0-.3-.02-.43-.05-.45-.13-.67-.37-.67-.72 0-.45.25-.75.74-.9.5-.16.84-.38 1.03-.65s.36-.9.5-1.9l.36-2.73c.54-4.07 1.14-7.63 1.78-10.7.45-2.24.94-4.3 1.5-6.2l1.05-3.8a11.6 11.6 0 0 0 .29-2.11c0-.6-.1-1.02-.3-1.25-.2-.22-.56-.46-1.05-.7a1.2 1.2 0 0 1-.74-1.18.8.8 0 0 1 .38-.72c.25-.16.56-.24.9-.24a16 16 0 0 1 1.41.1l1.13.1 1.15-.1c.13-.03.68-.1 1.66-.22s1.67-.17 2.1-.17c.54 0 .94.07 1.18.2s.47.5.7 1.08c.57 1.4 1.3 4.7 2.14 9.84a307.4 307.4 0 0 1 2.23 16.47l.3 2.78c.2 1 .53 1.65 1 1.97.2.13.4.24.63.34.3.2.43.43.43.72zm-10.8-10.13c0-.74-.03-1.34-.1-1.83-.06-.48-.32-1.92-.77-4.32l-.34-1.9c-.1-.6-.14-1.13-.14-1.6v-.96a2.1 2.1 0 0 0-.14-.86c-.2-.38-.5-.58-.96-.58-.96 0-1.78 1.76-2.45 5.28-.5 2.72-.77 4.9-.77 6.53 0 1.12.32 1.87.96 2.26.35.22.88.34 1.6.34h1c.9 0 1.5-.3 1.83-.86.2-.35.3-.85.3-1.5zm29.48-17.86c0 .35-.04.6-.1.77-.08.16-.34.24-.77.24-.62 0-1.1-.18-1.42-.53-.33-.35-.5-.8-.5-1.34v-1.54c-.03-.42-.18-.75-.43-1s-.53-.38-.82-.38a1.4 1.4 0 0 0-.82.21c-.2.14-.3.42-.3.84 0 .2.02.38.04.55a23.1 23.1 0 0 0 .15.77c.07.34.12.75.15 1.25a50.4 50.4 0 0 1 .04 2.04V645c0 .64.03 1.12.1 1.44s.3.62.67.9c.4.27.6.57.6.9 0 .58-.38.86-1.14.86-.32 0-.78-.04-1.38-.12s-.94-.12-1.04-.12h-4.5a5.6 5.6 0 0 0-1.11.12 4.9 4.9 0 0 1-.87.12c-.57 0-.86-.22-.86-.67 0-.35.17-.66.5-.9.15-.1.3-.2.45-.34s.27-.33.36-.6a4.3 4.3 0 0 0 .13-1.23l.02-23.3c.02-1.6.1-2.84.24-3.7a4.1 4.1 0 0 0 .03-.58c0-.42-.1-.7-.3-.9a1.1 1.1 0 0 0-.74-.26c-.35 0-.65.12-.9.36s-.36.68-.36 1.32v1.72c-.2.86-.78 1.3-1.8 1.3-.4 0-.7-.1-.82-.27-.14-.17-.2-.46-.2-.84 0-.45.15-1.17.45-2.16a15.6 15.6 0 0 0 .56-2.3c0-.4.06-.68.2-.9s.4-.3.86-.3c.34 0 .6.02.78.07.18.05.5.17.98.36.47.2.86.3 1.14.3h7.23a5.4 5.4 0 0 0 1.02-.07c.24-.05.66-.17 1.26-.36l.76-.2a3.3 3.3 0 0 1 .76-.09c.73 0 1.1.38 1.1 1.15l.3 2.4.24 1.2c.06.35.1.7.1 1z" fill="url(#AB)"/><path d="M471.74 631.25c0 2.72-.17 4.92-.53 6.62-.57 2.78-1.68 5.2-3.3 7.3a11.1 11.1 0 0 1-3.98 3.31 10.9 10.9 0 0 1-4.27.72l-1.87-.13-1.08-.14a6 6 0 0 0-.75-.06h-2.98c-.54 0-1 .06-1.4.17a3.6 3.6 0 0 1-.86.17c-.32 0-.6-.1-.84-.27-.24-.17-.36-.38-.36-.6 0-.2.1-.38.3-.58.03-.03.2-.15.48-.36a1.8 1.8 0 0 0 .6-.65c.1-.23.2-.46.22-.7s.05-.55.05-.93l-.07-2.1-.07-1.73v-24.1c0-.35-.2-.62-.55-.82-.37-.2-.55-.43-.55-.72s.1-.46.3-.53c.2-.06.47-.1.8-.1.6 0 1.06.04 1.34.12a3.2 3.2 0 0 0 .86.12h3.7l1.4-.05 2.4-.2a9.6 9.6 0 0 1 2.11.22 7.9 7.9 0 0 1 2.21.89c2.75 1.47 4.66 3.85 5.7 7.14.67 2.14 1 4.8 1 8zm-9.03 5.72V625.2l-.1-4.86c-.06-.84-.18-1.58-.35-2.2-.16-.62-.42-1.07-.78-1.34-.35-.27-.74-.4-1.17-.4-.38 0-.74.14-1.04.4-.3.27-.46.73-.46 1.36a3.6 3.6 0 0 0 .11 1.01c.07.22.1.38.1.48.14.6.22 1.3.22 2.06v16.6l-.14 4.93a9.3 9.3 0 0 1-.14 1.77c-.1.45-.14.78-.14 1 0 .7.2 1.2.57 1.48.26.2.58.3.96.3.74 0 1.28-.48 1.63-1.43a8.3 8.3 0 0 0 .41-1.7c.1-.72.2-1.56.24-2.54l.07-3.23V637zm33.4 11.3c0 .22-.1.43-.3.63-.2.2-.5.3-.92.3-.26 0-.48-.03-.67-.1l-.62-.17c-.23-.06-.5-.08-.8-.08h-4.27l-1.73.14-.65.12a3.5 3.5 0 0 1-.79.07c-.74 0-1.1-.24-1.1-.72s.23-.83.7-1.03c.46-.2.74-.36.84-.46.23-.23.34-.58.34-1.06v-1a3 3 0 0 0-1.87-2.54 5.5 5.5 0 0 0-2.31-.48c-1.34 0-2.3.42-2.88 1.26a3.9 3.9 0 0 0-.58 2.18c0 .7.16 1.24.47 1.6.2.23.48.42.9.6.4.17.6.44.6.8v.6c0 .2-.26.3-.77.3l-2.88-.34-2.06.14c-.16 0-.3-.02-.43-.05-.45-.13-.67-.37-.67-.72 0-.45.25-.75.74-.9.5-.16.84-.38 1.03-.65s.36-.9.5-1.9l.36-2.73c.54-4.07 1.14-7.63 1.78-10.7.45-2.24.94-4.3 1.5-6.2l1.05-3.8a11.6 11.6 0 0 0 .29-2.11c0-.6-.1-1.02-.3-1.25-.2-.22-.56-.46-1.05-.7-.5-.24-.75-.63-.75-1.18 0-.32.13-.56.4-.72.25-.16.56-.24.9-.24a16 16 0 0 1 1.41.1l1.13.1 1.15-.1c.13-.03.68-.1 1.66-.22s1.67-.17 2.1-.17c.54 0 .94.07 1.18.2s.47.5.7 1.08c.58 1.4 1.3 4.7 2.14 9.84a307.4 307.4 0 0 1 2.23 16.47l.3 2.78c.2 1 .53 1.65 1 1.97.2.13.4.24.63.34.3.2.43.43.43.72zm-10.8-10.13a13.3 13.3 0 0 0-.1-1.83c-.06-.48-.32-1.92-.77-4.32l-.34-1.9c-.1-.6-.14-1.13-.14-1.6v-.96a2.1 2.1 0 0 0-.14-.86c-.2-.38-.5-.58-.96-.58-.96 0-1.78 1.76-2.45 5.28-.5 2.72-.77 4.9-.77 6.53 0 1.12.32 1.87.96 2.26.35.22.88.34 1.58.34h1c.9 0 1.5-.3 1.83-.86.2-.35.3-.85.3-1.5zm-180.65-10.42h-39.9v-2.25h39.9v2.25z" fill="url(#AC)"/></g></svg>